<svg width="176" height="42" viewBox="0 0 176 42" fill="none" xmlns="http://www.w3.org/2000/svg">
<path d="M61.3182 26.2727C61.3182 28.1534 60.9659 29.7642 60.2614 31.1051C59.5625 32.4403 58.608 33.4631 57.3977 34.1733C56.1932 34.8835 54.8267 35.2386 53.2983 35.2386C51.7699 35.2386 50.4006 34.8835 49.1903 34.1733C47.9858 33.4574 47.0313 32.4318 46.3267 31.0966C45.6278 29.7557 45.2784 28.1477 45.2784 26.2727C45.2784 24.392 45.6278 22.7841 46.3267 21.4489C47.0313 20.108 47.9858 19.0824 49.1903 18.3722C50.4006 17.6619 51.7699 17.3068 53.2983 17.3068C54.8267 17.3068 56.1932 17.6619 57.3977 18.3722C58.608 19.0824 59.5625 20.108 60.2614 21.4489C60.9659 22.7841 61.3182 24.392 61.3182 26.2727ZM58.1392 26.2727C58.1392 24.9489 57.9318 23.8324 57.517 22.9233C57.108 22.0085 56.5398 21.3182 55.8125 20.8523C55.0852 20.3807 54.2472 20.1449 53.2983 20.1449C52.3494 20.1449 51.5114 20.3807 50.7841 20.8523C50.0568 21.3182 49.4858 22.0085 49.071 22.9233C48.6619 23.8324 48.4574 24.9489 48.4574 26.2727C48.4574 27.5966 48.6619 28.7159 49.071 29.6307C49.4858 30.5398 50.0568 31.2301 50.7841 31.7017C51.5114 32.1676 52.3494 32.4006 53.2983 32.4006C54.2472 32.4006 55.0852 32.1676 55.8125 31.7017C56.5398 31.2301 57.108 30.5398 57.517 29.6307C57.9318 28.7159 58.1392 27.5966 58.1392 26.2727ZM64.1712 35V21.9091H67.1626V24.0909H67.299C67.5376 23.3352 67.9467 22.7528 68.5263 22.3438C69.1115 21.929 69.7791 21.7216 70.5291 21.7216C70.6996 21.7216 70.8899 21.7301 71.1001 21.7472C71.3161 21.7585 71.495 21.7784 71.6371 21.8068V24.6449C71.5064 24.5994 71.299 24.5597 71.0149 24.5256C70.7365 24.4858 70.4666 24.4659 70.2053 24.4659C69.6428 24.4659 69.1371 24.5881 68.6882 24.8324C68.245 25.071 67.8956 25.4034 67.6399 25.8295C67.3842 26.2557 67.2564 26.7472 67.2564 27.304V35H64.1712ZM78.0057 35.2301C76.9773 35.2301 76.0568 34.9659 75.2443 34.4375C74.4318 33.9091 73.7898 33.142 73.3182 32.1364C72.8466 31.1307 72.6108 29.9091 72.6108 28.4716C72.6108 27.017 72.8494 25.7898 73.3267 24.7898C73.8097 23.7841 74.4602 23.0256 75.2784 22.5142C76.0966 21.9972 77.0085 21.7386 78.0142 21.7386C78.7813 21.7386 79.4119 21.8693 79.9062 22.1307C80.4006 22.3864 80.7926 22.696 81.0824 23.0597C81.3722 23.4176 81.5966 23.7557 81.7557 24.0739H81.8835V17.5455H84.9773V35H81.9432V32.9375H81.7557C81.5966 33.2557 81.3665 33.5937 81.0653 33.9517C80.7642 34.304 80.3665 34.6051 79.8722 34.8551C79.3778 35.1051 78.7557 35.2301 78.0057 35.2301ZM78.8665 32.6989C79.5199 32.6989 80.0767 32.5227 80.5369 32.1705C80.9972 31.8125 81.3466 31.3153 81.5852 30.679C81.8239 30.0426 81.9432 29.3011 81.9432 28.4545C81.9432 27.608 81.8239 26.8722 81.5852 26.2472C81.3523 25.6222 81.0057 25.1364 80.5455 24.7898C80.0909 24.4432 79.5313 24.2699 78.8665 24.2699C78.179 24.2699 77.6051 24.4489 77.1449 24.8068C76.6847 25.1648 76.3381 25.6591 76.1051 26.2898C75.8722 26.9205 75.7557 27.642 75.7557 28.4545C75.7557 29.2727 75.8722 30.0028 76.1051 30.6449C76.3438 31.2812 76.6932 31.7841 77.1534 32.1534C77.6193 32.517 78.1903 32.6989 78.8665 32.6989ZM94.0604 35.2557C92.7479 35.2557 91.6143 34.983 90.6598 34.4375C89.7109 33.8864 88.9808 33.108 88.4695 32.1023C87.9581 31.0909 87.7024 29.9006 87.7024 28.5312C87.7024 27.1847 87.9581 26.0028 88.4695 24.9858C88.9865 23.9631 89.7081 23.1676 90.6342 22.5994C91.5604 22.0256 92.6484 21.7386 93.8984 21.7386C94.7053 21.7386 95.4666 21.8693 96.1825 22.1307C96.9041 22.3864 97.5405 22.7841 98.0916 23.3239C98.6484 23.8636 99.0859 24.5511 99.4041 25.3864C99.7223 26.2159 99.8814 27.2045 99.8814 28.3523V29.2983H89.1513V27.2188H96.924C96.9183 26.6278 96.7905 26.1023 96.5405 25.642C96.2905 25.1761 95.9411 24.8097 95.4922 24.5426C95.049 24.2756 94.532 24.142 93.9411 24.142C93.3104 24.142 92.7564 24.2955 92.2791 24.6023C91.8018 24.9034 91.4297 25.3011 91.1626 25.7955C90.9013 26.2841 90.7678 26.821 90.7621 27.4062V29.2216C90.7621 29.983 90.9013 30.6364 91.1797 31.1818C91.4581 31.7216 91.8473 32.1364 92.3473 32.4261C92.8473 32.7102 93.4325 32.8523 94.103 32.8523C94.5518 32.8523 94.9581 32.7898 95.3217 32.6648C95.6854 32.5341 96.0007 32.3438 96.2678 32.0938C96.5348 31.8438 96.7365 31.5341 96.8729 31.1648L99.7536 31.4886C99.5717 32.25 99.2251 32.9148 98.7138 33.483C98.2081 34.0455 97.5604 34.483 96.7706 34.7955C95.9808 35.1023 95.0774 35.2557 94.0604 35.2557ZM102.491 35V21.9091H105.483V24.0909H105.619C105.858 23.3352 106.267 22.7528 106.847 22.3438C107.432 21.929 108.099 21.7216 108.849 21.7216C109.02 21.7216 109.21 21.7301 109.42 21.7472C109.636 21.7585 109.815 21.7784 109.957 21.8068V24.6449C109.827 24.5994 109.619 24.5597 109.335 24.5256C109.057 24.4858 108.787 24.4659 108.526 24.4659C107.963 24.4659 107.457 24.5881 107.009 24.8324C106.565 25.071 106.216 25.4034 105.96 25.8295C105.705 26.2557 105.577 26.7472 105.577 27.304V35H102.491Z" fill="#48BB78"/>
<path d="M112.143 17.5455H116.013L121.195 30.1932H121.399L126.581 17.5455H130.45V35H127.416V23.0085H127.254L122.43 34.9489H120.163L115.339 22.983H115.178V35H112.143V17.5455ZM139.553 35.2557C138.24 35.2557 137.107 34.983 136.152 34.4375C135.203 33.8864 134.473 33.108 133.962 32.1023C133.45 31.0909 133.195 29.9006 133.195 28.5312C133.195 27.1847 133.45 26.0028 133.962 24.9858C134.479 23.9631 135.2 23.1676 136.126 22.5994C137.053 22.0256 138.141 21.7386 139.391 21.7386C140.197 21.7386 140.959 21.8693 141.675 22.1307C142.396 22.3864 143.033 22.7841 143.584 23.3239C144.141 23.8636 144.578 24.5511 144.896 25.3864C145.214 26.2159 145.374 27.2045 145.374 28.3523V29.2983H134.643V27.2188H142.416C142.411 26.6278 142.283 26.1023 142.033 25.642C141.783 25.1761 141.433 24.8097 140.984 24.5426C140.541 24.2756 140.024 24.142 139.433 24.142C138.803 24.142 138.249 24.2955 137.771 24.6023C137.294 24.9034 136.922 25.3011 136.655 25.7955C136.393 26.2841 136.26 26.821 136.254 27.4062V29.2216C136.254 29.983 136.393 30.6364 136.672 31.1818C136.95 31.7216 137.339 32.1364 137.839 32.4261C138.339 32.7102 138.925 32.8523 139.595 32.8523C140.044 32.8523 140.45 32.7898 140.814 32.6648C141.178 32.5341 141.493 32.3438 141.76 32.0938C142.027 31.8438 142.229 31.5341 142.365 31.1648L145.246 31.4886C145.064 32.25 144.717 32.9148 144.206 33.483C143.7 34.0455 143.053 34.483 142.263 34.7955C141.473 35.1023 140.57 35.2557 139.553 35.2557ZM151.069 27.3295V35H147.984V21.9091H150.933V24.1335H151.086C151.387 23.4006 151.867 22.8182 152.526 22.3864C153.191 21.9545 154.012 21.7386 154.989 21.7386C155.893 21.7386 156.68 21.9318 157.35 22.3182C158.026 22.7045 158.549 23.2642 158.918 23.9972C159.293 24.7301 159.478 25.6193 159.472 26.6648V35H156.387V27.142C156.387 26.267 156.16 25.5824 155.705 25.0881C155.256 24.5937 154.634 24.3466 153.839 24.3466C153.299 24.3466 152.819 24.4659 152.398 24.7045C151.984 24.9375 151.657 25.2756 151.418 25.7188C151.185 26.1619 151.069 26.6989 151.069 27.3295ZM170.952 29.4943V21.9091H174.038V35H171.046V32.6733H170.91C170.614 33.4062 170.129 34.0057 169.452 34.4716C168.782 34.9375 167.955 35.1705 166.972 35.1705C166.114 35.1705 165.356 34.9801 164.697 34.5994C164.043 34.2131 163.532 33.6534 163.163 32.9205C162.793 32.1818 162.609 31.2898 162.609 30.2443V21.9091H165.694V29.767C165.694 30.5966 165.921 31.2557 166.376 31.7443C166.83 32.233 167.427 32.4773 168.165 32.4773C168.62 32.4773 169.06 32.3665 169.487 32.1449C169.913 31.9233 170.262 31.5938 170.535 31.1562C170.813 30.7131 170.952 30.1591 170.952 29.4943Z" fill="#2D3748"/>
<path d="M19 33.3434C28.3888 33.3434 36 26.8613 36 17.7324H2C2 26.8613 9.6112 33.3434 19 33.3434Z" fill="#48BB78" stroke="#2D3748" stroke-width="4" stroke-linecap="round" stroke-linejoin="round"/>
<path d="M13 32.4248L11 37.9346H27L25 32.4248" stroke="#2D3748" stroke-width="4" stroke-linecap="round" stroke-linejoin="round"/>
<path d="M7 6.71289V10.3861" stroke="#2D3748" stroke-width="4" stroke-linecap="round"/>
<path d="M31 6.71289V10.3861" stroke="#2D3748" stroke-width="4" stroke-linecap="round"/>
<path d="M19 2.12109V10.3857" stroke="#2D3748" stroke-width="4" stroke-linecap="round"/>
</svg>
